<?xml version="1.0" encoding="UTF-8"?>
<svg width="21px" height="23px" viewBox="0 0 21 23" version="1.1" xmlns="http://www.w3.org/2000/svg" xmlns:xlink="http://www.w3.org/1999/xlink">
    <!-- Generator: Sketch 40.3 (33839) - http://www.bohemiancoding.com/sketch -->
    <title>icon_home</title>
    <desc>Created with Sketch.</desc>
    <defs></defs>
    <g id="Page-1" stroke="none" stroke-width="1" fill="none" fill-rule="evenodd">
        <g id="Icoon_clear_sky_WU_API" transform="translate(-16.000000, -395.000000)" stroke="#FFFFFF">
            <g id="Icoon_home" transform="translate(0.000000, 383.000000)">
                <g id="Laag_1">
                    <g id="Group">
                        <path d="M25,13.9 L16.9,20.4 C16.8,20.5 16.7,20.7 16.7,20.9 L16.7,33.2 C16.7,33.5 17,33.8 17.3,33.8 L22.7,33.8 C23,33.8 23.3,33.5 23.3,33.2 L23.3,25.4 C23.3,25.1 23.6,24.8 23.9,24.8 L28.7,24.8 C29,24.8 29.3,25.1 29.3,25.4 L29.3,33.2 C29.3,33.5 29.6,33.8 29.9,33.8 L35.3,33.8 C35.6,33.8 35.9,33.5 35.9,33.2 L35.9,20.9 C35.9,20.7 35.8,20.5 35.7,20.4 L27.6,13.9 C26.8,13.2 25.7,13.2 25,13.9 L25,13.9 Z" id="icon_home"></path>
                    </g>
                </g>
            </g>
        </g>
    </g>
</svg>