<?xml version="1.0" encoding="UTF-8"?>
<svg width="36px" height="37px" viewBox="0 0 36 37" version="1.1" xmlns="http://www.w3.org/2000/svg" xmlns:xlink="http://www.w3.org/1999/xlink">
    <!-- Generator: Sketch 40.3 (33839) - http://www.bohemiancoding.com/sketch -->
    <title>icon_settings</title>
    <desc>Created with Sketch.</desc>
    <defs></defs>
    <g id="Page-1" stroke="none" stroke-width="1" fill="none" fill-rule="evenodd">
        <g id="icon_settings" transform="translate(0.000000, 1.000000)" stroke="#FFFFFF">
            <g id="Laag_1">
                <path d="M23.4,17.2 C23.4,14 20.8,11.4 17.7,11.4 C14.5,11.4 12,14 12,17.2 C12,20.4 14.6,23 17.7,23 C20.9,23 23.4,20.4 23.4,17.2 L23.4,17.2 Z M5.8,13.8 C6.1,12.9 6.4,12 6.9,11.2 L4.7,8.4 C4.1,7.6 4.1,6.5 4.8,5.8 L6.4,4.2 C7.1,3.5 8.2,3.4 9,4.1 L11.8,6.4 L11.8,6.4 C12.6,5.9 13.5,5.6 14.4,5.3 L14.8,1.7 C14.9,0.7 15.7,5.68434189e-14 16.7,5.68434189e-14 L19,5.68434189e-14 C20,5.68434189e-14 20.8,0.7 20.9,1.7 L21.3,5.3 L21.3,5.3 C22.2,5.6 23.1,5.9 23.9,6.4 L26.7,4.1 C27.5,3.5 28.6,3.5 29.3,4.2 L30.9,5.8 C31.6,6.5 31.6,7.6 31,8.4 L28.8,11.2 L28.8,11.2 C29.3,12 29.6,12.9 29.9,13.9 L33.4,14.3 C34.4,14.4 35.1,15.2 35.1,16.2 L35.1,18.5 C35.1,19.5 34.4,20.3 33.4,20.4 L29.9,20.8 L29.9,20.8 C29.6,21.7 29.3,22.6 28.8,23.4 L31,26.2 C31.6,27 31.6,28.1 30.9,28.8 L29.3,30.4 C28.6,31.1 27.5,31.2 26.7,30.5 L23.9,28.2 L23.9,28.2 C23.1,28.7 22.2,29 21.3,29.3 L20.9,32.9 C20.8,33.9 20,34.6 19,34.6 L16.7,34.6 C15.7,34.6 14.9,33.9 14.8,32.9 L14.4,29.3 L14.4,29.3 C13.5,29 12.6,28.7 11.8,28.2 L9,30.5 C8.2,31.1 7.1,31.1 6.4,30.4 L4.8,28.8 C4.1,28.1 4.1,27 4.7,26.2 L6.9,23.4 L6.9,23.4 C6.4,22.6 6.1,21.7 5.8,20.8 L2.3,20.4 C1.3,20.3 0.6,19.5 0.6,18.5 L0.6,16.2 C0.6,15.2 1.3,14.4 2.3,14.3 L5.8,13.8 L5.8,13.8 L5.8,13.8 Z" id="icon_settings"></path>
            </g>
        </g>
    </g>
</svg>