<?xml version="1.0" encoding="UTF-8"?>
<svg width="107px" height="107px" viewBox="0 0 107 107" version="1.1" xmlns="http://www.w3.org/2000/svg" xmlns:xlink="http://www.w3.org/1999/xlink">
    <!-- Generator: Sketch 40.3 (33839) - http://www.bohemiancoding.com/sketch -->
    <title>under_construction</title>
    <desc>Created with Sketch.</desc>
    <defs></defs>
    <g id="Page-1" stroke="none" stroke-width="1" fill="none" fill-rule="evenodd">
        <g id="cement-mixing" fill="#010002">
            <g id="Capa_1">
                <path d="M84.838,0 L21.209,0 C9.543,0 0,9.543 0,21.209 L0,84.838 C0,96.504 9.543,106.048 21.209,106.048 L84.837,106.048 C96.504,106.048 106.047,96.504 106.047,84.838 L106.047,21.209 C106.048,9.543 96.505,0 84.838,0 L84.838,0 Z M86.796,62.743 L89.68,61.774 L90.949,65.565 L88.454,66.393 C87.387,66.238 86.6,65.906 86.051,65.419 L86.796,62.743 L86.796,62.743 Z M74.689,58.398 C74.876,57.125 75.357,56.358 76.128,56.093 C76.671,56.306 77.215,56.508 77.754,56.689 C78.872,57.042 79.488,57.186 79.618,57.145 L79.597,57.073 C80.291,56.845 80.798,57.254 81.13,58.279 C81.441,59.175 81.503,60.101 81.326,61.07 C81.15,62.033 80.798,62.675 80.291,62.986 C80.073,63.058 79.27,63.4 77.847,64.016 L76.594,64.083 L75.859,63.4 C75.434,62.965 75.166,62.592 75.051,62.24 C74.627,60.962 74.503,59.678 74.689,58.398 L74.689,58.398 Z M74.089,67.579 L76.978,66.611 L78.242,70.39 L75.746,71.23 C74.69,71.074 73.892,70.738 73.349,70.255 L74.089,67.579 L74.089,67.579 Z M71.521,60.987 C71.769,61.713 71.49,62.219 70.676,62.494 L68.424,63.24 L66.938,61.526 C66.643,60.676 67.026,59.864 68.036,59.082 L71.014,60.092 C71.282,60.429 71.447,60.739 71.521,60.987 L71.521,60.987 Z M67.046,52.048 C67.787,51.81 68.465,51.859 69.123,52.175 C69.785,52.503 70.194,52.928 70.371,53.438 C70.578,54.075 70.241,54.898 69.346,55.924 L65.928,56.348 L65.804,52.822 C66.254,52.436 66.652,52.18 67.046,52.048 L67.046,52.048 Z M18.527,32.021 L15.923,27.948 L14.789,28.681 L13.256,26.288 L25.329,18.552 L26.862,20.939 L25.728,21.664 L28.343,25.736 L27.049,31.636 L34.531,44.017 L40.739,40.03 C40.739,40.03 47.307,49.744 46.634,53.778 C45.956,57.822 43.882,61.555 43.882,61.555 C43.882,61.555 39.62,61.882 35.664,60.805 C31.713,59.723 25.632,49.713 25.632,49.713 L31.866,45.715 L24.371,33.3 L18.527,32.021 L18.527,32.021 Z M23.527,87.494 L24.241,82.984 L30.652,79.422 L29.655,71.872 L38.16,71.132 L38.6,67.201 L48.48,66.351 L49.046,59.289 L50.742,57.031 L54.69,57.881 L55.145,61.641 L61.468,61.242 L61.866,68.351 L68.975,71.122 L69.373,76.652 C69.984,77.502 73.086,76.139 73.63,76.932 C73.133,76.15 74.179,77.729 73.63,76.932 C72.931,80.209 77.777,80.768 77.777,80.768 L78.725,83.803 L81.883,87.469 L23.527,87.494 L23.527,87.494 Z M83.398,81.482 C83.238,81.104 82.476,80.359 81.104,79.235 C79.826,78.086 79.163,77.474 79.131,77.412 C78.825,76.486 79.017,75.217 79.7,73.611 C80.399,71.923 81.233,70.629 82.238,69.728 L82.558,69.624 C84.692,68.914 86.473,69.364 87.928,70.97 C88.819,71.975 89.704,73.787 90.579,76.412 C90.687,76.738 90.678,77.075 90.543,77.433 C90.402,77.795 90.186,78.158 89.891,78.51 C89.59,78.857 89.228,79.183 88.787,79.473 C88.357,79.752 87.901,79.97 87.435,80.125 L83.398,81.482 L83.398,81.482 Z M90.285,86.526 C89.234,86.371 88.442,86.039 87.893,85.552 L88.633,82.874 L91.528,81.906 L92.792,85.691 L90.285,86.526 L90.285,86.526 Z M25.028,31.363 L19.788,30.214 L17.637,26.851 L24.019,22.763 L26.168,26.123 L25.028,31.363 L25.028,31.363 Z" id="under_construction"></path>
            </g>
        </g>
    </g>
</svg>