<?xml version="1.0" encoding="UTF-8"?>
<svg width="199px" height="199px" viewBox="0 0 199 199" version="1.1" xmlns="http://www.w3.org/2000/svg" xmlns:xlink="http://www.w3.org/1999/xlink">
    <!-- Generator: Sketch 40.3 (33839) - http://www.bohemiancoding.com/sketch -->
    <title>weather</title>
    <desc>Created with Sketch.</desc>
    <defs></defs>
    <g id="Page-1" stroke="none" stroke-width="1" fill="none" fill-rule="evenodd">
        <g id="Icoon_clear_sky_WU_API" fill="#61B4E4">
            <g id="Laag_1">
                <g id="weather">
                    <path d="M100.086957,49.5652174 C72.4782609,49.5652174 49.8695652,72.173913 49.8695652,99.7826087 C49.8695652,127.391304 72.4782609,150 100.086957,150 C127.695652,150 150.304348,127.391304 150.304348,99.7826087 C150.304348,72.173913 127.695652,49.5652174 100.086957,49.5652174 M100.086957,155.434783 C69.4347826,155.434783 44.4347826,130.434783 44.4347826,99.7826087 C44.4347826,69.1304348 69.4347826,44.1304348 100.086957,44.1304348 C130.73913,44.1304348 155.73913,69.1304348 155.73913,99.7826087 C155.73913,130.434783 130.73913,155.434783 100.086957,155.434783" id="Shape"></path>
                    <path d="M100.086957,32.6086957 C98.5652174,32.6086957 97.2608696,31.3043478 97.2608696,29.7826087 L97.2608696,3.47826087 C97.2608696,1.95652174 98.5652174,0.652173913 100.086957,0.652173913 C101.608696,0.652173913 102.913043,1.95652174 102.913043,3.47826087 L102.913043,29.7826087 C102.913043,31.5217391 101.608696,32.6086957 100.086957,32.6086957" id="Shape"></path>
                    <path d="M100.086957,198.695652 C98.5652174,198.695652 97.2608696,197.391304 97.2608696,195.869565 L97.2608696,169.565217 C97.2608696,168.043478 98.5652174,166.73913 100.086957,166.73913 C101.608696,166.73913 102.913043,168.043478 102.913043,169.565217 L102.913043,195.869565 C102.913043,197.391304 101.608696,198.695652 100.086957,198.695652" id="Shape"></path>
                    <path d="M196.173913,102.391304 L169.869565,102.391304 C168.347826,102.391304 167.043478,101.086957 167.043478,99.5652174 C167.043478,98.0434783 168.347826,96.7391304 169.869565,96.7391304 L196.173913,96.7391304 C197.695652,96.7391304 199,98.0434783 199,99.5652174 C199,101.304348 197.695652,102.391304 196.173913,102.391304" id="Shape"></path>
                    <path d="M30.3043478,102.391304 L3.7826087,102.391304 C2.26086957,102.391304 0.956521739,101.086957 0.956521739,99.5652174 C0.956521739,98.0434783 2.26086957,96.7391304 3.7826087,96.7391304 L30.3043478,96.7391304 C31.826087,96.7391304 33.1304348,98.0434783 33.1304348,99.5652174 C33.1304348,101.304348 31.826087,102.391304 30.3043478,102.391304" id="Shape"></path>
                    <path d="M168.130435,170.434783 C167.478261,170.434783 166.826087,170.217391 166.173913,169.565217 L147.478261,150.869565 C146.391304,149.782609 146.391304,148.043478 147.478261,146.956522 C148.565217,145.869565 150.304348,145.869565 151.391304,146.956522 L170.086957,165.652174 C171.173913,166.73913 171.173913,168.478261 170.086957,169.565217 C169.434783,170.217391 168.782609,170.434783 168.130435,170.434783" id="Shape"></path>
                    <path d="M50.7391304,53.0434783 C50.0869565,53.0434783 49.4347826,52.826087 48.7826087,52.173913 L30.0869565,33.4782609 C29,32.3913043 29,30.6521739 30.0869565,29.5652174 C31.173913,28.4782609 32.9130435,28.4782609 34,29.5652174 L52.6956522,48.2608696 C53.7826087,49.3478261 53.7826087,51.0869565 52.6956522,52.173913 C52.0434783,52.826087 51.3913043,53.0434783 50.7391304,53.0434783" id="Shape"></path>
                    <path d="M149.434783,53.0434783 C148.782609,53.0434783 148.130435,52.826087 147.478261,52.173913 C146.391304,51.0869565 146.391304,49.3478261 147.478261,48.2608696 L166.173913,29.5652174 C167.26087,28.4782609 169,28.4782609 170.086957,29.5652174 C171.173913,30.6521739 171.173913,32.3913043 170.086957,33.4782609 L151.391304,52.173913 C150.73913,52.826087 150.086957,53.0434783 149.434783,53.0434783" id="Shape"></path>
                    <path d="M32.0434783,170.434783 C31.3913043,170.434783 30.7391304,170.217391 30.0869565,169.565217 C29,168.478261 29,166.73913 30.0869565,165.652174 L48.7826087,146.956522 C49.8695652,145.869565 51.6086957,145.869565 52.6956522,146.956522 C53.7826087,148.043478 53.7826087,149.782609 52.6956522,150.869565 L34,169.565217 C33.5652174,170.217391 32.6956522,170.434783 32.0434783,170.434783" id="Shape"></path>
                </g>
            </g>
        </g>
    </g>
</svg>