<?xml version="1.0" encoding="UTF-8"?>
<svg width="41px" height="50px" viewBox="0 0 41 50" version="1.1" xmlns="http://www.w3.org/2000/svg" xmlns:xlink="http://www.w3.org/1999/xlink">
    <!-- Generator: Sketch 40.3 (33839) - http://www.bohemiancoding.com/sketch -->
    <title>map_marker</title>
    <desc>Created with Sketch.</desc>
    <defs></defs>
    <g id="Page-1" stroke="none" stroke-width="1" fill="none" fill-rule="evenodd">
        <g id="map_marker" fill="#000000">
            <g id="Laag_1">
                <path d="M17.4455206,49.9273608 L19.1646489,25.157385 C19.4552058,25.2421308 19.7699758,25.2905569 20.0847458,25.2905569 C20.3995157,25.2905569 20.7142857,25.2421308 21.0048426,25.157385 L22.7239709,49.9273608 M39.7699758,34.1404358 C39.1646489,35.1815981 37.7966102,35.5811138 36.7917676,34.9394673 L21.2711864,25 C21.3075061,24.9757869 21.3559322,24.9515738 21.3922518,24.9273608 C22.1186441,24.4915254 22.6029056,23.6924939 22.6029056,22.7845036 L22.6029056,22.6997579 L26.2590799,24.5883777 L38.9709443,31.1622276 C40.0363196,31.7191283 40.3631961,33.1113801 39.7699758,34.1404358 M22.2760291,2.23970944 L21.4285714,20.653753 C21.0411622,20.4116223 20.5932203,20.2784504 20.0968523,20.2784504 C19.6125908,20.2784504 19.1525424,20.4237288 18.7651332,20.653753 L17.9176755,2.23970944 C17.8571429,1.04116223 18.8983051,0.0605326877 20.0968523,0.0605326877 C21.2953995,0.0605326877 22.3244552,1.05326877 22.2760291,2.23970944 M17.8934625,23.9951574 C17.905569,24.0193705 17.9176755,24.031477 17.9297821,24.0556901 C17.9418886,24.0799031 17.9661017,24.1162228 17.9782082,24.1404358 C17.9903148,24.1525424 18.0024213,24.1767554 18.0145278,24.188862 C18.0387409,24.2130751 18.0508475,24.2493947 18.0750605,24.2736077 C18.0871671,24.2857143 18.0992736,24.3099274 18.1113801,24.3220339 C18.1355932,24.346247 18.1598063,24.3825666 18.1840194,24.4067797 C18.1961259,24.4188862 18.2082324,24.4309927 18.220339,24.4430993 C18.2445521,24.4673123 18.2687651,24.503632 18.2929782,24.527845 C18.3050847,24.5399516 18.3171913,24.5520581 18.3292978,24.5641646 C18.3535109,24.5883777 18.3898305,24.6246973 18.4140436,24.6489104 C18.4261501,24.6610169 18.4382567,24.6610169 18.4382567,24.6731235 C18.4745763,24.6973366 18.4987893,24.7336562 18.535109,24.7578692 C18.5472155,24.7699758 18.5472155,24.7699758 18.559322,24.7699758 C18.5956416,24.7941889 18.6319613,24.8184019 18.6682809,24.8547215 L18.6803874,24.8668281 C18.716707,24.8910412 18.7651332,24.9152542 18.8014528,24.9515738 C18.8377724,24.9757869 18.8861985,25 18.9225182,25.0242131 L3.38983051,34.9394673 C2.38498789,35.5811138 1.01694915,35.1815981 0.411622276,34.1404358 C-0.1937046,33.0992736 0.14527845,31.7191283 1.21065375,31.1622276 L17.5786925,22.6997579 L17.5786925,22.7845036 C17.5786925,22.8450363 17.5786925,22.905569 17.590799,22.9539952 L17.590799,23.0145278 C17.590799,23.0508475 17.6029056,23.0871671 17.6029056,23.1234867 C17.6029056,23.1476998 17.6150121,23.1719128 17.6150121,23.1961259 C17.6150121,23.2324455 17.6271186,23.2566586 17.6271186,23.2929782 C17.6271186,23.3171913 17.6392252,23.3414044 17.6392252,23.3656174 C17.6513317,23.3898305 17.6513317,23.4261501 17.6634383,23.4503632 C17.6755448,23.4745763 17.6755448,23.4987893 17.6876513,23.535109 C17.6997579,23.559322 17.6997579,23.5835351 17.7118644,23.6198547 C17.7239709,23.6440678 17.7360775,23.6682809 17.748184,23.7046005 C17.7602906,23.7288136 17.7723971,23.7530266 17.7723971,23.7772397 C17.7845036,23.8014528 17.7966102,23.8377724 17.8087167,23.8619855 C17.8208232,23.8861985 17.8329298,23.9104116 17.8450363,23.9225182 C17.8692494,23.9467312 17.8813559,23.9709443 17.8934625,23.9951574 M18.0145278,22.7845036 C18.0145278,21.6343826 18.9467312,20.7142857 20.0847458,20.7142857 C21.2348668,20.7142857 22.1549637,21.6464891 22.1549637,22.7845036 C22.1549637,23.9346247 21.2227603,24.8547215 20.0847458,24.8547215 C18.9467312,24.8547215 18.0145278,23.9346247 18.0145278,22.7845036" id="turbine"></path>
            </g>
        </g>
    </g>
</svg>