<?xml version="1.0" encoding="UTF-8"?>
<svg width="23px" height="13px" viewBox="0 0 23 13" version="1.1" xmlns="http://www.w3.org/2000/svg" xmlns:xlink="http://www.w3.org/1999/xlink">
    <!-- Generator: Sketch 46.2 (44496) - http://www.bohemiancoding.com/sketch -->
    <title>MonteurGeel@1,5x</title>
    <desc>Created with Sketch.</desc>
    <defs></defs>
    <g id="app" stroke="none" stroke-width="1" fill="none" fill-rule="evenodd">
        <g id="Notificaties" transform="translate(-332.000000, -115.000000)" fill="#FFFFFF">
            <g id="MonteurGeel" transform="translate(328.000000, 115.000000)">
                <g id="Group-3" transform="translate(3.945946, 0.135135)">
                    <path d="M13.7312972,5.68685366 L12.953413,5.92773471 C12.9023056,6.18101681 12.7809256,6.4312926 12.6696919,6.64060733 L13.0526214,7.35009784 L12.332233,8.07086204 L11.6231183,7.68868415 C11.4138035,7.81870731 11.1657825,7.91979468 10.8831888,7.9904431 L10.6689888,8.74916203 L9.65360566,8.74916203 L9.4131004,7.97165362 C9.15869093,7.92017047 8.90879094,7.79879047 8.70022778,7.68755679 L7.99036148,8.07086204 L7.26997307,7.35009784 L7.65177517,6.64135891 C7.52175202,6.43166839 7.42066465,6.18402313 7.35039202,5.90142945 L6.5912973,5.68685366 L6.5912973,4.67184632 L7.36918149,4.43134106 C7.42028886,4.17768317 7.54166886,3.92740738 7.65290254,3.71809265 L7.26997307,3.00860214 L7.99036148,2.28821373 L8.69947621,2.67001583 C8.90879094,2.53999267 9.15681199,2.4389053 9.43940567,2.36825688 L9.65360566,1.60916216 L10.6689888,1.60916216 L10.9094941,2.38742215 C11.1639035,2.43852952 11.4138035,2.5602853 11.6223667,2.67114319 L12.332233,2.28821373 L13.0526214,3.00860214 L12.6708193,3.71771686 C12.7997151,3.92477686 12.8996751,4.16904001 12.9699477,4.4475 L13.7312972,4.67184632 L13.7312972,5.68685366 Z M20.9238135,5.20553064 C20.6503487,5.20553064 20.2764895,4.97431938 20.1544614,4.72992501 L18.3750811,1.17082642 C18.0793064,0.580291207 17.3586304,0.135108108 16.6984614,0.135108108 L1.48719376,0.135108108 C0.741503616,0.135108108 0.135081081,0.741530643 0.135081081,1.48722078 L0.135081081,9.09285459 C0.135081081,9.83854473 0.741503616,10.4449673 1.48719376,10.4449673 L2.73181348,10.4449673 C2.96167263,11.4124039 3.83074305,12.1351081 4.86747545,12.1351081 C5.90420784,12.1351081 6.77361629,11.4124039 7.00313742,10.4449673 L15.4075318,10.4449673 C15.6373909,11.4124039 16.5064614,12.1351081 17.5431938,12.1351081 C18.5799262,12.1351081 19.4493346,11.4124039 19.6788557,10.4449673 L20.9238135,10.4449673 C21.6695036,10.4449673 22.2759262,9.83854473 22.2759262,9.09285459 L22.2759262,6.55764332 C22.2759262,5.81195318 21.6695036,5.20553064 20.9238135,5.20553064 L20.9238135,5.20553064 Z" id="Fill-1"></path>
                </g>
                <path d="M14.1048108,3.87708108 C13.3137297,3.87708108 12.6699459,4.52086486 12.6699459,5.31194595 C12.6699459,6.10302703 13.3137297,6.74681081 14.1048108,6.74681081 C14.8958919,6.74681081 15.5396757,6.10302703 15.5396757,5.31194595 C15.5396757,4.52086486 14.8958919,3.87708108 14.1048108,3.87708108" id="Fill-4"></path>
            </g>
        </g>
    </g>
</svg>