<?xml version="1.0" encoding="UTF-8"?>
<svg width="19px" height="19px" viewBox="0 0 19 19" version="1.1" xmlns="http://www.w3.org/2000/svg" xmlns:xlink="http://www.w3.org/1999/xlink">
    <!-- Generator: Sketch 46.2 (44496) - http://www.bohemiancoding.com/sketch -->
    <title>InboxWhite@1,5x</title>
    <desc>Created with Sketch.</desc>
    <defs></defs>
    <g id="app" stroke="none" stroke-width="1" fill="none" fill-rule="evenodd">
        <g id="Menu" transform="translate(-22.000000, -343.000000)" fill="#FFFFFF">
            <g id="side-nav-drawer" transform="translate(-2.000000, 0.000000)">
                <g id="list" transform="translate(24.074013, 283.240029)">
                    <g id="icons" transform="translate(-0.000000, 3.648129)">
                        <path d="M16,57 L1.99,57 C0.886,57 0.01,57.895 0.01,59 L0,73 C0,74.104 0.886,75 1.99,75 L16,75 C17.105,75 18,74.104 18,73 L18,59 C18,57.895 17.105,57 16,57 L16,57 Z M16,69 L12,69 C12,70.657 10.657,72 9,72 C7.343,72 6,70.657 6,69 L1.99,69 L1.99,59 L16,59 L16,69 L16,69 Z M13,64 L11,64 L11,61 L7,61 L7,64 L5,64 L9,68 L13,64 L13,64 Z" id="InboxWhite"></path>
                    </g>
                </g>
            </g>
        </g>
    </g>
</svg>