<?xml version="1.0" encoding="UTF-8"?>
<svg width="18px" height="21px" viewBox="0 0 18 21" version="1.1" xmlns="http://www.w3.org/2000/svg" xmlns:xlink="http://www.w3.org/1999/xlink">
    <!-- Generator: Sketch 46.2 (44496) - http://www.bohemiancoding.com/sketch -->
    <title>AccountWhite@1,5x</title>
    <desc>Created with Sketch.</desc>
    <defs>
        <polygon id="path-1" points="0 10.0000833 0 20 17.5 20 17.5 10.0000833 17.5 0.000166666667 0 0.000166666667"></polygon>
    </defs>
    <g id="app" stroke="none" stroke-width="1" fill="none" fill-rule="evenodd">
        <g id="Menu" transform="translate(-22.000000, -396.000000)">
            <g id="side-nav-drawer" transform="translate(-2.000000, 0.000000)">
                <g id="list" transform="translate(24.074013, 283.240029)">
                    <g id="icons" transform="translate(-0.000000, 3.648129)">
                        <g id="AccountWhite" transform="translate(0.000000, 110.000000)">
                            <mask id="mask-2" fill="white">
                                <use xlink:href="#path-1"></use>
                            </mask>
                            <g id="Clip-2"></g>
                            <path d="M17.5,16.6668333 L17.5,19.1668333 C17.5,19.6251667 17.125,20.0001667 16.6666667,20.0001667 L0.833333333,20.0001667 C0.375,20.0001667 0,19.6251667 0,19.1668333 L0,16.6668333 C0,13.2501667 2.58333333,10.4168333 5.95833333,10.0418333 C4.375,9.0835 3.33333333,7.37516667 3.33333333,5.41683333 C3.33333333,2.41683333 5.75,0.000166666667 8.75,0.000166666667 C11.75,0.000166666667 14.1666667,2.41683333 14.1666667,5.41683333 C14.1666667,7.37516667 13.125,9.0835 11.5416667,10.0418333 C14.9166667,10.4168333 17.5,13.2501667 17.5,16.6668333" id="Fill-1" fill="#FFFFFF" mask="url(#mask-2)"></path>
                        </g>
                    </g>
                </g>
            </g>
        </g>
    </g>
</svg>