<?xml version="1.0" encoding="UTF-8"?>
<svg width="20px" height="21px" viewBox="0 0 20 21" version="1.1" xmlns="http://www.w3.org/2000/svg" xmlns:xlink="http://www.w3.org/1999/xlink">
    <!-- Generator: Sketch 46.2 (44496) - http://www.bohemiancoding.com/sketch -->
    <title>SettingsWhite@1,5x</title>
    <desc>Created with Sketch.</desc>
    <defs></defs>
    <g id="app" stroke="none" stroke-width="1" fill="none" fill-rule="evenodd">
        <g id="Menu" transform="translate(-22.000000, -446.000000)" fill="#FFFFFF">
            <g id="side-nav-drawer" transform="translate(-2.000000, 0.000000)">
                <g id="list" transform="translate(24.074013, 283.240029)">
                    <g id="icons" transform="translate(-0.000000, 3.648129)">
                        <g id="SettingsWhite" transform="translate(0.000000, 160.000000)">
                            <path d="M9.99679512,13.0030596 C8.06464,13.0030596 6.49832491,11.4362447 6.49832491,9.50458935 C6.49832491,7.57293401 8.06464,6.00611914 9.99679512,6.00611914 C11.9289502,6.00611914 13.4952653,7.57293401 13.4952653,9.50458935 C13.4952653,11.4362447 11.9289502,13.0030596 9.99679512,13.0030596 L9.99679512,13.0030596 Z M17.2331309,10.4786634 C17.2736132,10.1588033 17.3036001,9.83394534 17.3036001,9.50458935 C17.3036001,9.17423381 17.2736132,8.84937586 17.2331309,8.53001551 L19.3577019,6.87573888 C19.5486184,6.72480488 19.6040941,6.45542267 19.4781492,6.23551883 L17.4690277,2.77303288 C17.3430828,2.55712729 17.0826967,2.46816619 16.8567954,2.55712729 L14.3553892,3.5621878 C13.8381154,3.16686067 13.2703637,2.83250687 12.6581314,2.57761833 L12.2812962,0.178167542 C12.2353163,-0.0567297442 12.0294063,0.0082418455 11.7790158,0.0082418455 L7.76177244,0.0082418455 C7.50988258,0.0082418455 7.30397262,-0.0567297442 7.2639901,0.178167542 L6.88765467,2.70256369 C6.27442281,2.95745224 5.70767064,3.22433554 5.19039683,3.62466049 L2.68949041,2.58861352 C2.46358919,2.50365067 2.20270327,2.57312029 2.07675834,2.7885261 L0.0676368716,6.24301555 C-0.0583080562,6.45842136 -0.00283231419,6.72480488 0.188084203,6.87923735 L2.30715759,8.53151485 C2.26667529,8.85137499 2.23668841,9.17473359 2.23668841,9.50508914 C2.23668841,9.83444512 2.26667529,10.1593031 2.30715759,10.4786634 L0.188084203,12.13294 C-0.00283231419,12.2823747 -0.0583080562,12.5527565 0.0676368716,12.7726603 L2.07675834,16.2351463 C2.20270327,16.4510519 2.46308941,16.5405127 2.68949041,16.4510519 L5.19039683,15.4454916 C5.70767064,15.8408187 6.2749226,16.1761721 6.88765467,16.4310606 L7.2639901,19.3297931 C7.30397262,19.5646903 7.50988258,20 7.76177244,20 L11.7790158,20 C12.0294063,20 12.2353163,19.5646903 12.2757986,19.3297931 L12.6526338,16.556006 C13.2653659,16.3011174 13.8326178,15.9082892 14.3498916,15.5079642 L16.8507981,16.4820383 C17.0766993,16.5670012 17.3375852,16.4665451 17.4635301,16.2511393 L19.4726516,12.7806568 C19.597597,12.5657508 19.5431208,12.2913708 19.3517045,12.1369383 L17.2331309,10.4786634 Z" id="Fill-1"></path>
                        </g>
                    </g>
                </g>
            </g>
        </g>
    </g>
</svg>